<mxfile host="Electron" modified="2023-05-03T12:28:38.983Z" agent="Mozilla/5.0 (Windows NT 10.0; Win64; x64) AppleWebKit/537.36 (KHTML, like Gecko) draw.io/21.2.1 Chrome/112.0.5615.87 Electron/24.1.2 Safari/537.36" etag="GBdZuzf6U0gjBj_wMw5G" version="21.2.1" type="device">
  <diagram id="C5RBs43oDa-KdzZeNtuy" name="Page-1">
    <mxGraphModel dx="880" dy="572" grid="1" gridSize="10" guides="1" tooltips="1" connect="1" arrows="1" fold="1" page="1" pageScale="1" pageWidth="827" pageHeight="1169" math="0" shadow="0">
      <root>
        <mxCell id="WIyWlLk6GJQsqaUBKTNV-0" />
        <mxCell id="WIyWlLk6GJQsqaUBKTNV-1" parent="WIyWlLk6GJQsqaUBKTNV-0" />
        <mxCell id="gomDDEnituQJOHSmRIlt-1" style="edgeStyle=orthogonalEdgeStyle;rounded=0;orthogonalLoop=1;jettySize=auto;html=1;entryX=0.5;entryY=0;entryDx=0;entryDy=0;" edge="1" parent="WIyWlLk6GJQsqaUBKTNV-1" target="gomDDEnituQJOHSmRIlt-0">
          <mxGeometry relative="1" as="geometry">
            <mxPoint x="440" y="80" as="sourcePoint" />
          </mxGeometry>
        </mxCell>
        <mxCell id="gomDDEnituQJOHSmRIlt-49" style="edgeStyle=elbowEdgeStyle;rounded=0;orthogonalLoop=1;jettySize=auto;elbow=vertical;html=1;entryX=0.5;entryY=0;entryDx=0;entryDy=0;" edge="1" parent="WIyWlLk6GJQsqaUBKTNV-1" source="gomDDEnituQJOHSmRIlt-0" target="gomDDEnituQJOHSmRIlt-47">
          <mxGeometry relative="1" as="geometry" />
        </mxCell>
        <mxCell id="gomDDEnituQJOHSmRIlt-0" value="LEER Ãºltimo modo de WebStorage" style="shape=parallelogram;perimeter=parallelogramPerimeter;whiteSpace=wrap;html=1;fixedSize=1;" vertex="1" parent="WIyWlLk6GJQsqaUBKTNV-1">
          <mxGeometry x="370" y="110" width="160" height="60" as="geometry" />
        </mxCell>
        <mxCell id="gomDDEnituQJOHSmRIlt-7" value="FIN" style="ellipse;whiteSpace=wrap;html=1;" vertex="1" parent="WIyWlLk6GJQsqaUBKTNV-1">
          <mxGeometry x="414" y="400" width="120" height="50" as="geometry" />
        </mxCell>
        <mxCell id="gomDDEnituQJOHSmRIlt-8" value="INICIO" style="ellipse;whiteSpace=wrap;html=1;" vertex="1" parent="WIyWlLk6GJQsqaUBKTNV-1">
          <mxGeometry x="380" y="40" width="120" height="40" as="geometry" />
        </mxCell>
        <mxCell id="gomDDEnituQJOHSmRIlt-30" style="edgeStyle=elbowEdgeStyle;rounded=0;orthogonalLoop=1;jettySize=auto;elbow=vertical;html=1;" edge="1" parent="WIyWlLk6GJQsqaUBKTNV-1" source="gomDDEnituQJOHSmRIlt-26" target="gomDDEnituQJOHSmRIlt-27">
          <mxGeometry relative="1" as="geometry" />
        </mxCell>
        <mxCell id="gomDDEnituQJOHSmRIlt-26" value="PONER MODO DIA" style="ellipse;whiteSpace=wrap;html=1;" vertex="1" parent="WIyWlLk6GJQsqaUBKTNV-1">
          <mxGeometry x="670" y="370" width="120" height="80" as="geometry" />
        </mxCell>
        <mxCell id="gomDDEnituQJOHSmRIlt-31" style="edgeStyle=elbowEdgeStyle;rounded=0;orthogonalLoop=1;jettySize=auto;elbow=vertical;html=1;entryX=0.5;entryY=0;entryDx=0;entryDy=0;" edge="1" parent="WIyWlLk6GJQsqaUBKTNV-1" source="gomDDEnituQJOHSmRIlt-27" target="gomDDEnituQJOHSmRIlt-28">
          <mxGeometry relative="1" as="geometry" />
        </mxCell>
        <mxCell id="gomDDEnituQJOHSmRIlt-27" value="ACTUALIZAR CSS" style="rounded=1;whiteSpace=wrap;html=1;" vertex="1" parent="WIyWlLk6GJQsqaUBKTNV-1">
          <mxGeometry x="670" y="480" width="120" height="60" as="geometry" />
        </mxCell>
        <mxCell id="gomDDEnituQJOHSmRIlt-32" style="edgeStyle=elbowEdgeStyle;rounded=0;orthogonalLoop=1;jettySize=auto;elbow=vertical;html=1;" edge="1" parent="WIyWlLk6GJQsqaUBKTNV-1" source="gomDDEnituQJOHSmRIlt-28" target="gomDDEnituQJOHSmRIlt-55">
          <mxGeometry relative="1" as="geometry">
            <mxPoint x="730" y="670" as="targetPoint" />
          </mxGeometry>
        </mxCell>
        <mxCell id="gomDDEnituQJOHSmRIlt-28" value="GRABAR EN WebStorage el modo DIA" style="rounded=1;whiteSpace=wrap;html=1;" vertex="1" parent="WIyWlLk6GJQsqaUBKTNV-1">
          <mxGeometry x="670" y="580" width="120" height="60" as="geometry" />
        </mxCell>
        <mxCell id="gomDDEnituQJOHSmRIlt-34" style="edgeStyle=elbowEdgeStyle;rounded=0;orthogonalLoop=1;jettySize=auto;elbow=vertical;html=1;entryX=0.5;entryY=0;entryDx=0;entryDy=0;" edge="1" parent="WIyWlLk6GJQsqaUBKTNV-1" source="gomDDEnituQJOHSmRIlt-55" target="gomDDEnituQJOHSmRIlt-33">
          <mxGeometry relative="1" as="geometry">
            <mxPoint x="730" y="730" as="sourcePoint" />
          </mxGeometry>
        </mxCell>
        <mxCell id="gomDDEnituQJOHSmRIlt-33" value="FIN" style="ellipse;whiteSpace=wrap;html=1;" vertex="1" parent="WIyWlLk6GJQsqaUBKTNV-1">
          <mxGeometry x="670" y="770" width="120" height="40" as="geometry" />
        </mxCell>
        <mxCell id="gomDDEnituQJOHSmRIlt-36" style="edgeStyle=elbowEdgeStyle;rounded=0;orthogonalLoop=1;jettySize=auto;elbow=vertical;html=1;" edge="1" parent="WIyWlLk6GJQsqaUBKTNV-1" source="gomDDEnituQJOHSmRIlt-37" target="gomDDEnituQJOHSmRIlt-39">
          <mxGeometry relative="1" as="geometry" />
        </mxCell>
        <mxCell id="gomDDEnituQJOHSmRIlt-37" value="PONER MODO NOCHE" style="ellipse;whiteSpace=wrap;html=1;" vertex="1" parent="WIyWlLk6GJQsqaUBKTNV-1">
          <mxGeometry x="100" y="350" width="120" height="80" as="geometry" />
        </mxCell>
        <mxCell id="gomDDEnituQJOHSmRIlt-38" style="edgeStyle=elbowEdgeStyle;rounded=0;orthogonalLoop=1;jettySize=auto;elbow=vertical;html=1;entryX=0.5;entryY=0;entryDx=0;entryDy=0;" edge="1" parent="WIyWlLk6GJQsqaUBKTNV-1" source="gomDDEnituQJOHSmRIlt-39" target="gomDDEnituQJOHSmRIlt-41">
          <mxGeometry relative="1" as="geometry" />
        </mxCell>
        <mxCell id="gomDDEnituQJOHSmRIlt-39" value="ACTUALIZAR CSS" style="rounded=1;whiteSpace=wrap;html=1;" vertex="1" parent="WIyWlLk6GJQsqaUBKTNV-1">
          <mxGeometry x="100" y="460" width="120" height="60" as="geometry" />
        </mxCell>
        <mxCell id="gomDDEnituQJOHSmRIlt-40" style="edgeStyle=elbowEdgeStyle;rounded=0;orthogonalLoop=1;jettySize=auto;elbow=vertical;html=1;entryX=0.5;entryY=0;entryDx=0;entryDy=0;" edge="1" parent="WIyWlLk6GJQsqaUBKTNV-1" source="gomDDEnituQJOHSmRIlt-41" target="gomDDEnituQJOHSmRIlt-53">
          <mxGeometry relative="1" as="geometry">
            <mxPoint x="160" y="650" as="targetPoint" />
          </mxGeometry>
        </mxCell>
        <mxCell id="gomDDEnituQJOHSmRIlt-41" value="GRABAR EN WebStorage el modo NOCHE" style="rounded=1;whiteSpace=wrap;html=1;" vertex="1" parent="WIyWlLk6GJQsqaUBKTNV-1">
          <mxGeometry x="100" y="560" width="120" height="60" as="geometry" />
        </mxCell>
        <mxCell id="gomDDEnituQJOHSmRIlt-42" style="edgeStyle=elbowEdgeStyle;rounded=0;orthogonalLoop=1;jettySize=auto;elbow=vertical;html=1;exitX=0.5;exitY=1;exitDx=0;exitDy=0;" edge="1" parent="WIyWlLk6GJQsqaUBKTNV-1" source="gomDDEnituQJOHSmRIlt-53" target="gomDDEnituQJOHSmRIlt-44">
          <mxGeometry relative="1" as="geometry">
            <mxPoint x="160" y="740" as="sourcePoint" />
            <mxPoint x="160" y="780" as="targetPoint" />
          </mxGeometry>
        </mxCell>
        <mxCell id="gomDDEnituQJOHSmRIlt-44" value="FIN" style="ellipse;whiteSpace=wrap;html=1;" vertex="1" parent="WIyWlLk6GJQsqaUBKTNV-1">
          <mxGeometry x="100" y="780" width="120" height="40" as="geometry" />
        </mxCell>
        <mxCell id="gomDDEnituQJOHSmRIlt-58" style="edgeStyle=elbowEdgeStyle;rounded=0;orthogonalLoop=1;jettySize=auto;elbow=vertical;html=1;entryX=0.425;entryY=-0.033;entryDx=0;entryDy=0;entryPerimeter=0;" edge="1" parent="WIyWlLk6GJQsqaUBKTNV-1" source="gomDDEnituQJOHSmRIlt-47">
          <mxGeometry relative="1" as="geometry">
            <mxPoint x="611" y="268.02" as="targetPoint" />
            <Array as="points">
              <mxPoint x="550" y="235" />
            </Array>
          </mxGeometry>
        </mxCell>
        <mxCell id="gomDDEnituQJOHSmRIlt-59" value="&lt;font style=&quot;font-size: 18px;&quot;&gt;SI&lt;/font&gt;" style="edgeLabel;html=1;align=center;verticalAlign=middle;resizable=0;points=[];" vertex="1" connectable="0" parent="gomDDEnituQJOHSmRIlt-58">
          <mxGeometry x="-0.104" y="2" relative="1" as="geometry">
            <mxPoint as="offset" />
          </mxGeometry>
        </mxCell>
        <mxCell id="gomDDEnituQJOHSmRIlt-63" style="edgeStyle=elbowEdgeStyle;rounded=0;orthogonalLoop=1;jettySize=auto;elbow=vertical;html=1;entryX=0.5;entryY=0;entryDx=0;entryDy=0;" edge="1" parent="WIyWlLk6GJQsqaUBKTNV-1" source="gomDDEnituQJOHSmRIlt-47" target="gomDDEnituQJOHSmRIlt-62">
          <mxGeometry relative="1" as="geometry">
            <Array as="points">
              <mxPoint x="320" y="235" />
            </Array>
          </mxGeometry>
        </mxCell>
        <mxCell id="gomDDEnituQJOHSmRIlt-65" value="&lt;span style=&quot;font-size: 18px;&quot;&gt;NO&lt;/span&gt;" style="edgeLabel;html=1;align=center;verticalAlign=middle;resizable=0;points=[];" vertex="1" connectable="0" parent="gomDDEnituQJOHSmRIlt-63">
          <mxGeometry x="-0.0462" y="1" relative="1" as="geometry">
            <mxPoint as="offset" />
          </mxGeometry>
        </mxCell>
        <mxCell id="gomDDEnituQJOHSmRIlt-47" value="NO HAY o es DIA" style="rhombus;whiteSpace=wrap;html=1;" vertex="1" parent="WIyWlLk6GJQsqaUBKTNV-1">
          <mxGeometry x="410" y="195" width="80" height="80" as="geometry" />
        </mxCell>
        <mxCell id="gomDDEnituQJOHSmRIlt-52" style="edgeStyle=elbowEdgeStyle;rounded=0;orthogonalLoop=1;jettySize=auto;elbow=vertical;html=1;entryX=0.5;entryY=0;entryDx=0;entryDy=0;" edge="1" parent="WIyWlLk6GJQsqaUBKTNV-1">
          <mxGeometry relative="1" as="geometry">
            <mxPoint x="620" y="330" as="sourcePoint" />
            <mxPoint x="474" y="400" as="targetPoint" />
          </mxGeometry>
        </mxCell>
        <mxCell id="gomDDEnituQJOHSmRIlt-53" value="HABILITAR ICONO MODO DIA" style="rounded=1;whiteSpace=wrap;html=1;" vertex="1" parent="WIyWlLk6GJQsqaUBKTNV-1">
          <mxGeometry x="100" y="670" width="120" height="60" as="geometry" />
        </mxCell>
        <mxCell id="gomDDEnituQJOHSmRIlt-54" style="edgeStyle=elbowEdgeStyle;rounded=0;orthogonalLoop=1;jettySize=auto;elbow=vertical;html=1;entryX=0.5;entryY=0;entryDx=0;entryDy=0;" edge="1" parent="WIyWlLk6GJQsqaUBKTNV-1" source="gomDDEnituQJOHSmRIlt-53" target="gomDDEnituQJOHSmRIlt-53">
          <mxGeometry relative="1" as="geometry" />
        </mxCell>
        <mxCell id="gomDDEnituQJOHSmRIlt-55" value="HABILITAR ICONO MODO NOCHE" style="rounded=1;whiteSpace=wrap;html=1;" vertex="1" parent="WIyWlLk6GJQsqaUBKTNV-1">
          <mxGeometry x="670" y="670" width="120" height="60" as="geometry" />
        </mxCell>
        <mxCell id="gomDDEnituQJOHSmRIlt-61" value="Llamar a poner modo DIA" style="rounded=0;whiteSpace=wrap;html=1;" vertex="1" parent="WIyWlLk6GJQsqaUBKTNV-1">
          <mxGeometry x="550" y="270" width="120" height="60" as="geometry" />
        </mxCell>
        <mxCell id="gomDDEnituQJOHSmRIlt-64" style="edgeStyle=elbowEdgeStyle;rounded=0;orthogonalLoop=1;jettySize=auto;elbow=vertical;html=1;entryX=0.5;entryY=0;entryDx=0;entryDy=0;" edge="1" parent="WIyWlLk6GJQsqaUBKTNV-1" source="gomDDEnituQJOHSmRIlt-62">
          <mxGeometry relative="1" as="geometry">
            <mxPoint x="474" y="400" as="targetPoint" />
          </mxGeometry>
        </mxCell>
        <mxCell id="gomDDEnituQJOHSmRIlt-62" value="Llamar a poner modo NOCHE" style="rounded=0;whiteSpace=wrap;html=1;" vertex="1" parent="WIyWlLk6GJQsqaUBKTNV-1">
          <mxGeometry x="260" y="275" width="120" height="60" as="geometry" />
        </mxCell>
        <mxCell id="gomDDEnituQJOHSmRIlt-66" value="&lt;h1&gt;Modos dia/noche&lt;/h1&gt;&lt;p&gt;&lt;font style=&quot;font-size: 16px;&quot;&gt;Se implementa esta lÃ³gica en nuestro JAVASCRIPT&lt;/font&gt;&lt;/p&gt;" style="text;html=1;strokeColor=none;fillColor=none;spacing=5;spacingTop=-20;whiteSpace=wrap;overflow=hidden;rounded=0;" vertex="1" parent="WIyWlLk6GJQsqaUBKTNV-1">
          <mxGeometry x="40" y="30" width="215" height="120" as="geometry" />
        </mxCell>
      </root>
    </mxGraphModel>
  </diagram>
</mxfile>
